<?xml version="1.0" encoding="UTF-8"?>
<svg version="1.1" xmlns="http://www.w3.org/2000/svg" width="274" height="274">
<path d="M0 0 C0.99169189 0.23348145 0.99169189 0.23348145 2.00341797 0.47167969 C20.29777643 4.82685839 37.36498838 13.22797364 52 25 C52.55623047 25.43957031 53.11246094 25.87914063 53.68554688 26.33203125 C82.40959938 49.1665014 100.11863042 82.09626619 104.58984375 118.421875 C108.12790544 153.20339519 99.11266203 189.37385124 77.40625 217.1015625 C54.08769886 245.18981728 24.00225565 265.38968659 -13 270 C-13.83789062 270.10957031 -14.67578125 270.21914063 -15.5390625 270.33203125 C-50.5272188 274.20240252 -87.33119215 265.09273264 -115.23046875 243.28125 C-119.62708279 239.65977948 -123.86098497 235.91276662 -128 232 C-128.82242188 231.24203125 -129.64484375 230.4840625 -130.4921875 229.703125 C-154.0940424 207.20416051 -168.40118043 173.44399187 -169.203125 140.9453125 C-169.35582562 127.66133077 -169.08713609 114.95174229 -166 102 C-165.8443457 101.3188916 -165.68869141 100.6377832 -165.52832031 99.93603516 C-157.43674248 65.65584762 -134.30804391 34.970075 -104.50292969 16.44824219 C-73.17906663 -1.87916597 -35.59124028 -9.05423486 0 0 Z " fill="#FAF2E6" transform="translate(169,3)"/>
<path d="M0 0 C0.99169189 0.23348145 0.99169189 0.23348145 2.00341797 0.47167969 C20.29777643 4.82685839 37.36498838 13.22797364 52 25 C52.55623047 25.43957031 53.11246094 25.87914063 53.68554688 26.33203125 C82.40959938 49.1665014 100.11863042 82.09626619 104.58984375 118.421875 C108.12790544 153.20339519 99.11266203 189.37385124 77.40625 217.1015625 C54.08769886 245.18981728 24.00225565 265.38968659 -13 270 C-13.83789062 270.10957031 -14.67578125 270.21914063 -15.5390625 270.33203125 C-50.5272188 274.20240252 -87.33119215 265.09273264 -115.23046875 243.28125 C-119.62708279 239.65977948 -123.86098497 235.91276662 -128 232 C-128.82242188 231.24203125 -129.64484375 230.4840625 -130.4921875 229.703125 C-154.0940424 207.20416051 -168.40118043 173.44399187 -169.203125 140.9453125 C-169.35582562 127.66133077 -169.08713609 114.95174229 -166 102 C-165.8443457 101.3188916 -165.68869141 100.6377832 -165.52832031 99.93603516 C-157.43674248 65.65584762 -134.30804391 34.970075 -104.50292969 16.44824219 C-73.17906663 -1.87916597 -35.59124028 -9.05423486 0 0 Z M-116 48 C-116.67417969 48.61101563 -117.34835938 49.22203125 -118.04296875 49.8515625 C-138.36774947 68.91872205 -151.10330785 98.92174812 -152.23828125 126.50390625 C-153.03313637 162.57672314 -140.89156144 194.0300089 -115.94140625 220.1171875 C-107.26258486 228.83976766 -96.91600223 235.43132437 -86 241 C-85.39349609 241.31066406 -84.78699219 241.62132812 -84.16210938 241.94140625 C-59.71247357 254.17902501 -28.10787873 258.09153235 -1.59375 250.2578125 C-0.4078125 249.84273437 0.778125 249.42765625 2 249 C2.65484375 248.78569336 3.3096875 248.57138672 3.984375 248.35058594 C19.73726609 243.18730532 33.26387899 235.55667784 46 225 C46.79921875 224.36578125 47.5984375 223.7315625 48.421875 223.078125 C63.7277657 210.37749229 73.75440166 192.2103469 81 174 C81.4021875 173.00484375 81.804375 172.0096875 82.21875 170.984375 C92.74494029 142.43607104 89.03141674 110.34169664 76.91455078 82.97167969 C63.91541003 54.93485024 39.94311115 32.42215853 11.04296875 21.43359375 C-33.90363552 5.43283195 -81.48325414 14.9736145 -116 48 Z " fill="#1E2D50" transform="translate(169,3)"/>
<path d="M0 0 C9.9 0 19.8 0 30 0 C30.33 12.87 30.66 25.74 31 39 C38.69803452 28.58043813 46.37774245 18.15330881 53.91088867 7.61376953 C54.41982666 6.90462402 54.92876465 6.19547852 55.453125 5.46484375 C55.89817383 4.842146 56.34322266 4.21944824 56.80175781 3.57788086 C58 2 58 2 60 0 C62.98095703 -0.22705078 62.98095703 -0.22705078 66.7578125 -0.1953125 C67.75238968 -0.19106766 67.75238968 -0.19106766 68.76705933 -0.18673706 C70.88655583 -0.17553435 73.00563104 -0.15043051 75.125 -0.125 C76.56119182 -0.11497028 77.99739025 -0.10584441 79.43359375 -0.09765625 C82.95586628 -0.075595 86.47789203 -0.04106494 90 0 C88.65283182 2.86253357 87.12226944 5.34286804 85.234375 7.87890625 C84.68015869 8.62640137 84.12594238 9.37389648 83.55493164 10.14404297 C82.9593042 10.94213379 82.36367676 11.74022461 81.75 12.5625 C80.83238892 13.80604248 80.83238892 13.80604248 79.89624023 15.07470703 C76.61469292 19.51673526 73.29660333 23.92609155 69.92578125 28.30078125 C68.95463379 29.57683228 68.95463379 29.57683228 67.96386719 30.87866211 C66.71527531 32.51795999 65.4545152 34.1480746 64.18066406 35.76782227 C63.61702148 36.51217529 63.05337891 37.25652832 62.47265625 38.0234375 C61.97000244 38.67231934 61.46734863 39.32120117 60.94946289 39.98974609 C59.64529653 42.75099727 60.07399551 44.12427996 61 47 C62.14488 49.34931274 62.14488 49.34931274 63.6328125 51.67578125 C64.18485352 52.57514404 64.73689453 53.47450684 65.30566406 54.40112305 C65.90604492 55.36187744 66.50642578 56.32263184 67.125 57.3125 C67.74084961 58.31128174 68.35669922 59.31006348 68.99121094 60.33911133 C74.35038623 69.01301079 79.7626821 77.65521469 85.19970703 86.28051758 C85.79895996 87.23337646 86.39821289 88.18623535 87.015625 89.16796875 C87.54446289 90.00610107 88.07330078 90.8442334 88.61816406 91.70776367 C89.85878253 93.76574366 90.96232788 95.83403073 92 98 C62.70736763 100.51065911 62.70736763 100.51065911 55.56933594 96.70361328 C52.04421107 93.24826283 50.47317233 88.97042454 48.90722656 84.36669922 C47.28876616 80.14459073 44.76676814 76.44417997 42.375 72.625 C38 65.36189147 38 65.36189147 38 63 C33.11931475 67.75224616 30.78025945 70.30078941 30.5859375 77.19921875 C30.55032715 78.28807373 30.5147168 79.37692871 30.47802734 80.4987793 C30.44402832 81.88105713 30.4100293 83.26333496 30.375 84.6875 C30.25125 89.080625 30.1275 93.47375 30 98 C20.1 98 10.2 98 0 98 C0 65.66 0 33.32 0 0 Z " fill="#212F51" transform="translate(135,84)"/>
<path d="M0 0 C7.95767576 5.40125603 13.00142576 12.55219448 15 22 C15 23.32 15 24.64 15 26 C6.09 26 -2.82 26 -12 26 C-12.66 24.02 -13.32 22.04 -14 20 C-19.48103801 17.43440774 -26.03766615 17.15084679 -32 18 C-34.33433819 19.18764836 -34.33433819 19.18764836 -36 21 C-36.75 24.5 -36.75 24.5 -36 28 C-32.53324042 30.60790594 -29.20664737 31.61660405 -25 32.5 C-23.85917969 32.74878906 -22.71835938 32.99757812 -21.54296875 33.25390625 C-20.37378906 33.50011719 -19.20460937 33.74632812 -18 34 C6.82211461 39.23926986 6.82211461 39.23926986 14.3828125 49.9609375 C18.3722204 57.46548802 18.26240143 66.25203003 16.1171875 74.3203125 C12.11104482 84.90608023 6.17512796 90.08147598 -3.98046875 94.77734375 C-18.25319155 100.55659632 -35.5420453 99.36493512 -49.70703125 93.96875 C-58.87084393 89.90205052 -63.76118122 83.70577177 -67.37109375 74.4921875 C-68 72 -68 72 -68 66 C-58.76 66 -49.52 66 -40 66 C-39.34 67.65 -38.68 69.3 -38 71 C-34.13206791 74.16341589 -30.90713908 74.40672719 -26 74.375 C-24.80375 74.38273437 -23.6075 74.39046875 -22.375 74.3984375 C-18.48633355 73.93935882 -15.7905248 72.7905248 -13 70 C-12.95919217 68.00041636 -12.95745644 65.99954746 -13 64 C-19.34587863 60.8034933 -25.19225309 59.23581637 -32.1875 58.1875 C-44.10573748 56.1342965 -54.79957784 52.80103011 -62.765625 43.08984375 C-67.04296689 35.8481415 -66.9974598 27.15459829 -66 19 C-63.91394297 11.58722061 -59.08973407 5.6134349 -53 1 C-37.92289694 -7.39473051 -15.1242224 -9.25686564 0 0 Z " fill="#1F2E50" transform="translate(107,87)"/>
</svg>
