<?xml version="1.0" encoding="UTF-8"?>
<svg version="1.1" xmlns="http://www.w3.org/2000/svg" width="1806" height="274">
<path d="M0 0 C0.86475648 -0.00277531 1.72951297 -0.00555063 2.62047419 -0.00841005 C4.04246919 -0.00535554 4.04246919 -0.00535554 5.49319135 -0.00223933 C6.50745314 -0.00401434 7.52171494 -0.00578935 8.56671193 -0.00761814 C11.99979908 -0.01238714 15.43284472 -0.00997814 18.86593389 -0.00765924 C21.34896772 -0.00961092 23.83200123 -0.01199928 26.31503426 -0.01478721 C31.74849853 -0.01986542 37.18195031 -0.02180328 42.61541665 -0.02103646 C50.74961807 -0.01990277 58.88380938 -0.02447661 67.01800853 -0.0301673 C80.8792938 -0.03968779 94.74057706 -0.04438792 108.60186528 -0.04647664 C122.65524461 -0.04860362 136.70862081 -0.05285983 150.76199865 -0.05971937 C152.09185948 -0.06036529 152.09185948 -0.06036529 153.44858618 -0.06102426 C157.05928566 -0.06278256 160.66998513 -0.06455221 164.28068459 -0.06633728 C208.07701707 -0.08794736 251.87335018 -0.09881739 295.66968678 -0.10781351 C309.86934798 -0.11074659 324.06900904 -0.11411636 338.26867007 -0.11778073 C339.77085193 -0.11816816 339.77085193 -0.11816816 341.30338089 -0.11856343 C345.35474243 -0.11960962 349.40610397 -0.12065805 353.4574655 -0.12170925 C422.75549903 -0.13967421 492.0535328 -0.15505431 561.35156833 -0.16246828 C566.79587613 -0.16305226 572.24018394 -0.16364952 577.68449174 -0.1642459 C579.30447896 -0.16442308 579.30447896 -0.16442308 580.95719319 -0.16460384 C591.89925501 -0.16580124 602.84131682 -0.16701 613.78337863 -0.16823637 C615.97731544 -0.1684816 618.17125226 -0.16872546 620.36518907 -0.16896794 C690.84007369 -0.17675919 761.31494166 -0.19914578 831.789819 -0.23164436 C882.42121694 -0.25498452 933.05261157 -0.2765391 983.68401479 -0.28365068 C985.24533424 -0.28387121 985.24533424 -0.28387121 986.8381955 -0.2840962 C1009.68624189 -0.28728076 1032.53428825 -0.28933183 1055.38233483 -0.29032374 C1064.57507762 -0.2907385 1073.7678204 -0.29129339 1082.96056318 -0.29188566 C1083.9666686 -0.29194632 1084.97277402 -0.29200699 1086.00936749 -0.2920695 C1118.43984734 -0.29408683 1150.87030755 -0.30833507 1183.30078055 -0.32883066 C1215.95901324 -0.34939704 1248.61722321 -0.35731329 1281.27546172 -0.34775289 C1285.78577375 -0.34643439 1290.29608581 -0.34525636 1294.80639791 -0.34416227 C1296.13264812 -0.34383249 1296.13264812 -0.34383249 1297.48569126 -0.34349606 C1311.50029298 -0.34037862 1325.51485135 -0.35072035 1339.52944302 -0.36663782 C1353.30158998 -0.38200194 1367.07367682 -0.38316063 1380.84582584 -0.36908958 C1388.92541147 -0.36126416 1397.00481371 -0.36443536 1405.08438113 -0.38372674 C1411.07537355 -0.3968148 1417.06614699 -0.38914017 1423.05714061 -0.37323939 C1425.47119241 -0.3700786 1427.88526452 -0.37368325 1430.29929311 -0.38473114 C1433.57036579 -0.39873112 1436.84047758 -0.38813206 1440.11151659 -0.37138281 C1441.5119949 -0.38625887 1441.5119949 -0.38625887 1442.94076571 -0.40143546 C1450.48151514 -0.31983666 1457.05871533 1.57309745 1463.26433896 5.95078059 C1471.63547184 14.66918754 1473.83389542 23.2539338 1473.81211423 35.05728694 C1473.81551257 36.40786759 1473.81551257 36.40786759 1473.81897955 37.78573271 C1473.82531052 40.80332681 1473.82449076 43.82087589 1473.82366513 46.8384759 C1473.82665722 49.00192355 1473.83005986 51.16537067 1473.83384275 53.32881709 C1473.84268266 59.20703986 1473.84502088 65.08524808 1473.84565853 70.96347686 C1473.84660802 75.87140426 1473.85028683 80.77932828 1473.85383063 85.68725439 C1473.86197541 97.26842502 1473.86441487 108.84958789 1473.8637042 120.43076106 C1473.86310361 132.37368798 1473.87365157 144.31656971 1473.88944786 156.2594852 C1473.90252886 166.51527029 1473.90788785 176.77104061 1473.90724879 187.02683397 C1473.90699393 193.15107836 1473.90983809 199.27528261 1473.92042684 205.39951869 C1473.930117 211.16148455 1473.93018064 216.92337196 1473.92291021 222.6853406 C1473.92186546 224.79724083 1473.9242207 226.90914596 1473.93027066 229.02103778 C1473.93800924 231.91008434 1473.93333335 234.79886124 1473.92563962 237.68790217 C1473.93078319 238.51817557 1473.93592675 239.34844897 1473.94122618 240.20388218 C1473.8844456 249.89202897 1472.0377022 257.6392255 1465.67840146 265.12656184 C1457.81200419 272.72798573 1448.92435905 274.58434449 1438.26941787 274.50376 C1437.25166759 274.50809118 1436.23391731 274.51242236 1435.18532611 274.51688479 C1431.77037927 274.52775269 1428.35583623 274.5172512 1424.94089269 274.50687857 C1422.45915398 274.51031128 1419.9774168 274.51505753 1417.49568283 274.52099954 C1412.08057125 274.53092617 1406.6655816 274.53150927 1401.25046844 274.52392651 C1393.14383822 274.51262913 1385.03728336 274.51863253 1376.93065394 274.5279905 C1363.11438405 274.54342831 1349.29814564 274.54459542 1335.48187017 274.53801127 C1321.47896083 274.53138621 1307.47607401 274.53125517 1293.47316503 274.53905841 C1292.58898792 274.5395464 1291.70481082 274.5400344 1290.79384047 274.54053719 C1287.19276828 274.54254535 1283.59169612 274.54459845 1279.99062398 274.54670893 C1243.42387221 274.56811702 1206.85713707 274.5701621 1170.29038059 274.56465189 C1165.23658379 274.56389619 1160.18278698 274.56316857 1155.12899017 274.56246992 C1154.12520907 274.56233083 1153.12142798 274.56219174 1152.08722928 274.56204843 C1129.85005458 274.55909718 1107.61288189 274.5621079 1085.37570756 274.56636621 C1082.33304689 274.56694836 1079.29038621 274.56751721 1076.24772553 274.56808184 C1068.09157046 274.56959676 1059.93541539 274.57112367 1051.77926032 274.57267485 C994.83564997 274.58343308 937.89204148 274.58813181 880.94843053 274.58020468 C879.87483651 274.58005638 878.80124249 274.57990807 877.69511531 274.57975527 C865.7231315 274.57809624 853.7511477 274.57634666 841.7791639 274.57456226 C840.69824939 274.57440124 839.61733487 274.57424021 838.50366537 274.57407431 C829.73060194 274.57276645 829.73060194 274.57276645 825.38973258 274.57211312 C756.24245634 274.56172058 687.09520555 274.56948949 617.94793271 274.59311457 C600.52404169 274.59905785 583.10015066 274.60494936 565.67625951 274.6105239 C564.06703185 274.61103955 564.06703185 274.61103955 562.42529454 274.61156563 C529.36814 274.62209088 496.31098759 274.62768692 463.25383138 274.62808104 C462.21620461 274.62809382 461.17857784 274.62810661 460.10950784 274.62811978 C437.33282876 274.62834805 414.55614987 274.6273421 391.7794709 274.62521072 C383.62991936 274.62445594 375.48036782 274.62377774 367.33081628 274.62313057 C365.30337312 274.62296788 363.27592997 274.62280022 361.24848682 274.62262756 C328.92515715 274.61990486 296.60184292 274.62846707 264.27851657 274.64248166 C230.82531117 274.6568798 197.37213516 274.65645141 163.91893078 274.63910694 C160.32810055 274.63730271 156.7372703 274.63556253 153.14644002 274.63387271 C152.26517595 274.63345221 151.38391187 274.6330317 150.47594282 274.63259846 C136.51033292 274.62629565 122.54476334 274.63341242 108.57915911 274.64608191 C94.85357197 274.65825126 81.12804857 274.65617983 67.40246627 274.63886159 C59.35144723 274.62912922 51.30060909 274.63035427 43.24960181 274.64769157 C37.27800383 274.6593317 31.30663021 274.65018842 25.33503806 274.63284572 C22.93017013 274.62909976 20.52528016 274.63210072 18.12043206 274.64255881 C14.85931356 274.65576704 11.59916093 274.6443347 8.33808338 274.62680783 C7.41016773 274.63648893 6.48225209 274.64617003 5.52621779 274.65614451 C-3.95055204 274.551257 -12.64489294 271.80431275 -19.59894229 265.19296809 C-25.93154515 257.59671659 -27.47179152 249.80941166 -27.46204043 240.20892878 C-27.46501155 239.29785101 -27.46798268 238.38677324 -27.47104383 237.44808706 C-27.47973106 234.38826601 -27.48123912 231.32848409 -27.48273135 228.26865168 C-27.48735957 226.07741751 -27.49238424 223.88618415 -27.49777652 221.69495173 C-27.51090366 215.73602982 -27.5173463 209.77711917 -27.52178717 203.81818505 C-27.52471789 200.09467801 -27.52882273 196.37117405 -27.53329135 192.64766856 C-27.5469682 180.99611108 -27.55664935 169.34456005 -27.56049324 157.69299515 C-27.5609367 156.35232858 -27.56138326 155.011662 -27.56183291 153.67099543 C-27.56205434 153.00598283 -27.56227577 152.34097024 -27.56250391 151.65580574 C-27.56644865 140.88955129 -27.58389283 130.12336465 -27.60719243 119.35713637 C-27.63094023 108.29413668 -27.64311222 97.23117267 -27.64453436 86.1681474 C-27.64558183 79.96055452 -27.65147736 73.75305726 -27.66935397 67.54548808 C-27.68585125 61.70307077 -27.687982 55.86082079 -27.67921496 50.01838847 C-27.67844543 47.8778797 -27.68277615 45.73736189 -27.69267321 43.59687587 C-27.70542458 40.66641844 -27.69949842 37.73655076 -27.68909121 34.80609675 C-27.69714762 33.96638123 -27.70520402 33.1266657 -27.71350456 32.26150425 C-27.64272861 23.69382154 -25.66299747 15.70017631 -20.20050479 8.95078059 C-14.55839983 3.4728949 -7.88364731 0.00322071 0 0 Z " fill="#FAF3E6" transform="translate(332.32159853726625,-0.12656183913350105)"/>
<path d="M0 0 C0.86475648 -0.00277531 1.72951297 -0.00555063 2.62047419 -0.00841005 C4.04246919 -0.00535554 4.04246919 -0.00535554 5.49319135 -0.00223933 C6.50745314 -0.00401434 7.52171494 -0.00578935 8.56671193 -0.00761814 C11.99979908 -0.01238714 15.43284472 -0.00997814 18.86593389 -0.00765924 C21.34896772 -0.00961092 23.83200123 -0.01199928 26.31503426 -0.01478721 C31.74849853 -0.01986542 37.18195031 -0.02180328 42.61541665 -0.02103646 C50.74961807 -0.01990277 58.88380938 -0.02447661 67.01800853 -0.0301673 C80.8792938 -0.03968779 94.74057706 -0.04438792 108.60186528 -0.04647664 C122.65524461 -0.04860362 136.70862081 -0.05285983 150.76199865 -0.05971937 C152.09185948 -0.06036529 152.09185948 -0.06036529 153.44858618 -0.06102426 C157.05928566 -0.06278256 160.66998513 -0.06455221 164.28068459 -0.06633728 C208.07701707 -0.08794736 251.87335018 -0.09881739 295.66968678 -0.10781351 C309.86934798 -0.11074659 324.06900904 -0.11411636 338.26867007 -0.11778073 C339.77085193 -0.11816816 339.77085193 -0.11816816 341.30338089 -0.11856343 C345.35474243 -0.11960962 349.40610397 -0.12065805 353.4574655 -0.12170925 C422.75549903 -0.13967421 492.0535328 -0.15505431 561.35156833 -0.16246828 C566.79587613 -0.16305226 572.24018394 -0.16364952 577.68449174 -0.1642459 C579.30447896 -0.16442308 579.30447896 -0.16442308 580.95719319 -0.16460384 C591.89925501 -0.16580124 602.84131682 -0.16701 613.78337863 -0.16823637 C615.97731544 -0.1684816 618.17125226 -0.16872546 620.36518907 -0.16896794 C690.84007369 -0.17675919 761.31494166 -0.19914578 831.789819 -0.23164436 C882.42121694 -0.25498452 933.05261157 -0.2765391 983.68401479 -0.28365068 C985.24533424 -0.28387121 985.24533424 -0.28387121 986.8381955 -0.2840962 C1009.68624189 -0.28728076 1032.53428825 -0.28933183 1055.38233483 -0.29032374 C1064.57507762 -0.2907385 1073.7678204 -0.29129339 1082.96056318 -0.29188566 C1083.9666686 -0.29194632 1084.97277402 -0.29200699 1086.00936749 -0.2920695 C1118.43984734 -0.29408683 1150.87030755 -0.30833507 1183.30078055 -0.32883066 C1215.95901324 -0.34939704 1248.61722321 -0.35731329 1281.27546172 -0.34775289 C1285.78577375 -0.34643439 1290.29608581 -0.34525636 1294.80639791 -0.34416227 C1296.13264812 -0.34383249 1296.13264812 -0.34383249 1297.48569126 -0.34349606 C1311.50029298 -0.34037862 1325.51485135 -0.35072035 1339.52944302 -0.36663782 C1353.30158998 -0.38200194 1367.07367682 -0.38316063 1380.84582584 -0.36908958 C1388.92541147 -0.36126416 1397.00481371 -0.36443536 1405.08438113 -0.38372674 C1411.07537355 -0.3968148 1417.06614699 -0.38914017 1423.05714061 -0.37323939 C1425.47119241 -0.3700786 1427.88526452 -0.37368325 1430.29929311 -0.38473114 C1433.57036579 -0.39873112 1436.84047758 -0.38813206 1440.11151659 -0.37138281 C1441.5119949 -0.38625887 1441.5119949 -0.38625887 1442.94076571 -0.40143546 C1450.48151514 -0.31983666 1457.05871533 1.57309745 1463.26433896 5.95078059 C1471.63547184 14.66918754 1473.83389542 23.2539338 1473.81211423 35.05728694 C1473.81551257 36.40786759 1473.81551257 36.40786759 1473.81897955 37.78573271 C1473.82531052 40.80332681 1473.82449076 43.82087589 1473.82366513 46.8384759 C1473.82665722 49.00192355 1473.83005986 51.16537067 1473.83384275 53.32881709 C1473.84268266 59.20703986 1473.84502088 65.08524808 1473.84565853 70.96347686 C1473.84660802 75.87140426 1473.85028683 80.77932828 1473.85383063 85.68725439 C1473.86197541 97.26842502 1473.86441487 108.84958789 1473.8637042 120.43076106 C1473.86310361 132.37368798 1473.87365157 144.31656971 1473.88944786 156.2594852 C1473.90252886 166.51527029 1473.90788785 176.77104061 1473.90724879 187.02683397 C1473.90699393 193.15107836 1473.90983809 199.27528261 1473.92042684 205.39951869 C1473.930117 211.16148455 1473.93018064 216.92337196 1473.92291021 222.6853406 C1473.92186546 224.79724083 1473.9242207 226.90914596 1473.93027066 229.02103778 C1473.93800924 231.91008434 1473.93333335 234.79886124 1473.92563962 237.68790217 C1473.93078319 238.51817557 1473.93592675 239.34844897 1473.94122618 240.20388218 C1473.8844456 249.89202897 1472.0377022 257.6392255 1465.67840146 265.12656184 C1457.81200419 272.72798573 1448.92435905 274.58434449 1438.26941787 274.50376 C1437.25166759 274.50809118 1436.23391731 274.51242236 1435.18532611 274.51688479 C1431.77037927 274.52775269 1428.35583623 274.5172512 1424.94089269 274.50687857 C1422.45915398 274.51031128 1419.9774168 274.51505753 1417.49568283 274.52099954 C1412.08057125 274.53092617 1406.6655816 274.53150927 1401.25046844 274.52392651 C1393.14383822 274.51262913 1385.03728336 274.51863253 1376.93065394 274.5279905 C1363.11438405 274.54342831 1349.29814564 274.54459542 1335.48187017 274.53801127 C1321.47896083 274.53138621 1307.47607401 274.53125517 1293.47316503 274.53905841 C1292.58898792 274.5395464 1291.70481082 274.5400344 1290.79384047 274.54053719 C1287.19276828 274.54254535 1283.59169612 274.54459845 1279.99062398 274.54670893 C1243.42387221 274.56811702 1206.85713707 274.5701621 1170.29038059 274.56465189 C1165.23658379 274.56389619 1160.18278698 274.56316857 1155.12899017 274.56246992 C1154.12520907 274.56233083 1153.12142798 274.56219174 1152.08722928 274.56204843 C1129.85005458 274.55909718 1107.61288189 274.5621079 1085.37570756 274.56636621 C1082.33304689 274.56694836 1079.29038621 274.56751721 1076.24772553 274.56808184 C1068.09157046 274.56959676 1059.93541539 274.57112367 1051.77926032 274.57267485 C994.83564997 274.58343308 937.89204148 274.58813181 880.94843053 274.58020468 C879.87483651 274.58005638 878.80124249 274.57990807 877.69511531 274.57975527 C865.7231315 274.57809624 853.7511477 274.57634666 841.7791639 274.57456226 C840.69824939 274.57440124 839.61733487 274.57424021 838.50366537 274.57407431 C829.73060194 274.57276645 829.73060194 274.57276645 825.38973258 274.57211312 C756.24245634 274.56172058 687.09520555 274.56948949 617.94793271 274.59311457 C600.52404169 274.59905785 583.10015066 274.60494936 565.67625951 274.6105239 C564.06703185 274.61103955 564.06703185 274.61103955 562.42529454 274.61156563 C529.36814 274.62209088 496.31098759 274.62768692 463.25383138 274.62808104 C462.21620461 274.62809382 461.17857784 274.62810661 460.10950784 274.62811978 C437.33282876 274.62834805 414.55614987 274.6273421 391.7794709 274.62521072 C383.62991936 274.62445594 375.48036782 274.62377774 367.33081628 274.62313057 C365.30337312 274.62296788 363.27592997 274.62280022 361.24848682 274.62262756 C328.92515715 274.61990486 296.60184292 274.62846707 264.27851657 274.64248166 C230.82531117 274.6568798 197.37213516 274.65645141 163.91893078 274.63910694 C160.32810055 274.63730271 156.7372703 274.63556253 153.14644002 274.63387271 C152.26517595 274.63345221 151.38391187 274.6330317 150.47594282 274.63259846 C136.51033292 274.62629565 122.54476334 274.63341242 108.57915911 274.64608191 C94.85357197 274.65825126 81.12804857 274.65617983 67.40246627 274.63886159 C59.35144723 274.62912922 51.30060909 274.63035427 43.24960181 274.64769157 C37.27800383 274.6593317 31.30663021 274.65018842 25.33503806 274.63284572 C22.93017013 274.62909976 20.52528016 274.63210072 18.12043206 274.64255881 C14.85931356 274.65576704 11.59916093 274.6443347 8.33808338 274.62680783 C7.41016773 274.63648893 6.48225209 274.64617003 5.52621779 274.65614451 C-3.95055204 274.551257 -12.64489294 271.80431275 -19.59894229 265.19296809 C-25.93154515 257.59671659 -27.47179152 249.80941166 -27.46204043 240.20892878 C-27.46501155 239.29785101 -27.46798268 238.38677324 -27.47104383 237.44808706 C-27.47973106 234.38826601 -27.48123912 231.32848409 -27.48273135 228.26865168 C-27.48735957 226.07741751 -27.49238424 223.88618415 -27.49777652 221.69495173 C-27.51090366 215.73602982 -27.5173463 209.77711917 -27.52178717 203.81818505 C-27.52471789 200.09467801 -27.52882273 196.37117405 -27.53329135 192.64766856 C-27.5469682 180.99611108 -27.55664935 169.34456005 -27.56049324 157.69299515 C-27.5609367 156.35232858 -27.56138326 155.011662 -27.56183291 153.67099543 C-27.56205434 153.00598283 -27.56227577 152.34097024 -27.56250391 151.65580574 C-27.56644865 140.88955129 -27.58389283 130.12336465 -27.60719243 119.35713637 C-27.63094023 108.29413668 -27.64311222 97.23117267 -27.64453436 86.1681474 C-27.64558183 79.96055452 -27.65147736 73.75305726 -27.66935397 67.54548808 C-27.68585125 61.70307077 -27.687982 55.86082079 -27.67921496 50.01838847 C-27.67844543 47.8778797 -27.68277615 45.73736189 -27.69267321 43.59687587 C-27.70542458 40.66641844 -27.69949842 37.73655076 -27.68909121 34.80609675 C-27.69714762 33.96638123 -27.70520402 33.1266657 -27.71350456 32.26150425 C-27.64272861 23.69382154 -25.66299747 15.70017631 -20.20050479 8.95078059 C-14.55839983 3.4728949 -7.88364731 0.00322071 0 0 Z M-9.17236853 23.31712981 C-10.79382494 27.28097653 -10.73960525 30.83256866 -10.70927859 35.07747431 C-10.71466413 35.97997812 -10.72004967 36.88248192 -10.7255984 37.81233432 C-10.7399081 40.83705594 -10.73276677 43.8613418 -10.72565127 46.88608332 C-10.73135325 49.05440152 -10.73831684 51.22271672 -10.746449 53.39102717 C-10.76441435 59.28148513 -10.76320566 65.17179441 -10.75750662 71.06227155 C-10.75441969 75.97794712 -10.76050168 80.89359392 -10.76654536 85.80926539 C-10.78060004 97.40471985 -10.7790214 109.00010065 -10.76764346 120.59555598 C-10.7561606 132.56246582 -10.77023873 144.52915159 -10.79703993 156.4960319 C-10.8191828 166.76707049 -10.82583751 177.03803868 -10.81996352 187.30909945 C-10.81658946 193.44502382 -10.81903896 199.58080453 -10.83621455 205.71670886 C-10.851659 211.48614235 -10.84775567 217.2552434 -10.8289094 223.02466365 C-10.82521665 225.14265984 -10.8283519 227.26068053 -10.83879519 229.3786542 C-10.85195952 232.26904333 -10.84049775 235.15832451 -10.82280398 238.04866572 C-10.83240899 238.88767765 -10.84201399 239.72668957 -10.85191006 240.5911261 C-10.77406899 246.76725455 -9.06264817 250.18161878 -4.7950404 254.76667326 C-0.85930919 256.93052276 3.05320808 256.53731553 7.47214591 256.50491067 C8.48412691 256.50936608 9.49610792 256.51382149 10.53875501 256.51841192 C13.9641804 256.52977605 17.38921236 256.51958653 20.81463765 256.50967189 C23.29206214 256.5134048 25.76948494 256.51845165 28.24690437 256.52470072 C33.6680793 256.53531484 39.08913373 256.53651035 44.51031248 256.52960529 C52.62602675 256.51932076 60.74166347 256.52624949 68.85737442 256.53658535 C82.68698903 256.55368315 96.51657385 256.55644057 110.34619664 256.55146952 C124.3673283 256.54647508 138.38843675 256.54794547 152.40956639 256.55735179 C153.73637046 256.5582345 153.73637046 256.5582345 155.08997865 256.55913506 C158.69237011 256.56155151 162.29476153 256.56401159 165.89715291 256.56652771 C202.49922432 256.59205985 239.10128101 256.59801353 275.70336012 256.59611657 C280.76407371 256.59585695 285.8247873 256.59561828 290.8855009 256.59540148 C292.39318369 256.59533543 292.39318369 256.59533543 293.93132471 256.59526803 C316.18748042 256.59440532 338.44363381 256.59919272 360.69978862 256.6050834 C365.7787453 256.60642436 370.85770199 256.60772423 375.93665868 256.60902904 C377.97498248 256.60955356 380.01330628 256.61007815 382.05163008 256.61060281 C383.06197593 256.61086259 384.07232178 256.61112237 385.11328417 256.61139003 C387.15689244 256.61191621 389.20050071 256.61244388 391.24410897 256.61297304 C449.2483314 256.62797457 507.25255198 256.63673684 565.25677633 256.63201686 C566.331346 256.63193099 567.40591568 256.63184513 568.51304808 256.63175666 C580.49621625 256.63079722 592.47938442 256.62975902 604.46255258 256.62869777 C607.74249517 256.62840825 611.02243776 256.62811877 614.30238035 256.62782937 C616.49080869 256.62763537 618.67923702 256.62743987 620.86766536 256.62724288 C690.08226088 256.62102593 759.29682144 256.63588912 828.51140928 256.66855403 C845.95165259 256.67677692 863.39189594 256.68492674 880.83213948 256.69265528 C881.90592994 256.69313148 882.9797204 256.69360768 884.08604996 256.6940983 C917.16750116 256.70867874 950.24894945 256.71712902 983.3304038 256.71922084 C984.36863384 256.71928715 985.40686388 256.71935347 986.47655544 256.7194218 C1009.26534659 256.72081569 1032.05413754 256.72070477 1054.84292869 256.71921171 C1062.99663801 256.71868957 1071.15034735 256.71827241 1079.30405668 256.71790354 C1081.33257874 256.71781032 1083.3611008 256.71771118 1085.38962285 256.71760609 C1117.74588584 256.71597933 1150.10212284 256.7288222 1182.45837909 256.74876387 C1215.03651978 256.76872439 1247.61462166 256.77249494 1280.19276447 256.75413812 C1284.68998771 256.75160414 1289.18721102 256.74924173 1293.68443441 256.74698039 C1294.56605071 256.74653001 1295.44766701 256.74607962 1296.35599896 256.7456156 C1310.34132174 256.7389253 1324.32658022 256.74904859 1338.3118921 256.76609177 C1352.04858713 256.78248145 1365.78518422 256.78114966 1379.52187489 256.76069341 C1387.58507928 256.7492215 1395.64800009 256.75155091 1403.71118324 256.77390857 C1409.68299357 256.78895304 1415.6544538 256.77817532 1421.62625811 256.7569857 C1424.0377674 256.75250732 1426.44931005 256.75654683 1428.86078712 256.76979405 C1432.11904226 256.78649144 1435.37576688 256.77272082 1438.63395869 256.75100632 C1439.5750094 256.7631963 1440.5160601 256.77538629 1441.4856275 256.78794566 C1445.85534184 256.72710748 1448.77068459 256.51178173 1452.24367914 253.71253406 C1456.27412995 249.43170346 1455.8267708 246.00812944 1455.82557248 240.37782832 C1455.83108752 239.00235787 1455.83108752 239.00235787 1455.83671396 237.59910013 C1455.84778106 234.50758115 1455.85159974 231.41609574 1455.85540342 228.32455989 C1455.86166572 226.1156558 1455.86831231 223.90675277 1455.87531614 221.6978509 C1455.89274618 215.68336629 1455.9032831 209.66888963 1455.91152167 203.654386 C1455.91666696 199.89977206 1455.92274287 196.14516061 1455.9290328 192.39054843 C1455.94590455 181.99779848 1455.96054 171.60505011 1455.96778154 161.21228858 C1455.96969147 158.51484905 1455.9716118 155.81740953 1455.97356748 153.11997004 C1455.97405122 152.44952427 1455.97453496 151.77907851 1455.97503336 151.0883162 C1455.98333568 140.22477076 1456.00867585 129.36133537 1456.04114816 118.497838 C1456.07420526 107.34792252 1456.09189617 96.1980469 1456.09542578 85.04807856 C1456.0977808 78.78636705 1456.10680014 72.52482945 1456.13188695 66.26316424 C1456.15509995 60.37397044 1456.15942815 54.48506589 1456.14912557 48.59583827 C1456.14862847 46.43226255 1456.15499994 44.26867292 1456.16868161 42.10514041 C1456.18629538 39.15515889 1456.17934609 36.20622733 1456.16614866 33.25624629 C1456.1771179 32.39671137 1456.18808715 31.53717645 1456.19938879 30.65159502 C1456.15718179 26.75357892 1455.96003782 24.60944728 1453.96041726 21.18095656 C1448.77260473 16.5106056 1443.40957924 16.84155029 1436.77969461 16.87356218 C1435.7685188 16.87050908 1434.75734299 16.86745598 1433.71552549 16.86431037 C1430.29894899 16.85646517 1426.88254713 16.86296063 1423.46596956 16.86929293 C1420.99249703 16.86660175 1418.51902533 16.86303518 1416.0455552 16.85866847 C1410.63617686 16.85115656 1405.22684986 16.84991332 1399.81747174 16.85408035 C1391.7194148 16.86028439 1383.62139323 16.85501253 1375.52333886 16.84748294 C1361.72339901 16.83499632 1347.9234717 16.83207353 1334.12352704 16.83431788 C1320.13345833 16.83656452 1306.14340026 16.83450654 1292.15333318 16.82717295 C1291.27059827 16.82671365 1290.38786335 16.82625434 1289.47837889 16.82578112 C1285.88329629 16.8238979 1282.2882137 16.82198653 1278.69313113 16.82003874 C1241.16217216 16.79973436 1203.63121915 16.7936262 1166.10025531 16.79245451 C1162.05873533 16.79232502 1158.01721535 16.79218915 1153.97569536 16.7920477 C1152.47139334 16.79199668 1152.47139334 16.79199668 1150.93670137 16.79194464 C1128.72856423 16.79112827 1106.52042822 16.78675019 1084.31229168 16.78173601 C1075.17228177 16.77967935 1066.03227184 16.77769931 1056.89226191 16.77570351 C1055.88242017 16.77548233 1054.87257842 16.77526115 1053.83213541 16.77503327 C995.95187367 16.76238252 938.07161269 16.75413533 880.1913495 16.75505038 C878.02458155 16.75508194 875.85781361 16.75511341 873.69104566 16.7551448 C863.90790197 16.75529157 854.12475828 16.75546791 844.34161459 16.75565257 C839.97890978 16.75573481 835.61620498 16.75581511 831.25350017 16.75589519 C829.0698864 16.75593598 826.88627263 16.75597802 824.70265886 16.75602131 C755.63800506 16.75738213 686.57337177 16.74274261 617.50872373 16.71494075 C600.10561487 16.70793899 582.702506 16.7010002 565.29939698 16.69441195 C563.69213765 16.69380333 563.69213765 16.69380333 562.05240844 16.69318241 C529.04139695 16.68075753 496.03038714 16.67322229 463.01937341 16.67069598 C461.46535073 16.67057613 461.46535073 16.67057613 459.87993365 16.67045385 C437.1398058 16.66874752 414.39967805 16.66822484 391.65955015 16.66879461 C383.52328111 16.66898758 375.38701206 16.66909166 367.25074302 16.66915206 C365.22656434 16.66916789 363.20238565 16.6691883 361.17820697 16.66921331 C328.8917331 16.66956632 296.60527675 16.65815549 264.3188079 16.64090568 C231.81156958 16.62362616 199.30435555 16.61920582 166.79711457 16.63242832 C162.30970002 16.63425304 157.82228544 16.63593956 153.33487081 16.63754435 C152.45517807 16.63786453 151.57548532 16.6381847 150.66913523 16.63851458 C136.71438803 16.64322897 122.75968272 16.63448617 108.80494341 16.62020198 C95.09829526 16.60645128 81.39170925 16.60687238 67.68506252 16.62258625 C59.63955871 16.63138088 51.5942374 16.62913062 43.54874852 16.61085268 C37.59005211 16.59852664 31.63157926 16.60685864 25.67288529 16.62351928 C23.26667311 16.62698401 20.86043985 16.62363403 18.45424904 16.61291687 C15.20331193 16.59939818 11.95335549 16.61025556 8.70245748 16.62746652 C7.76350267 16.61766728 6.82454786 16.60786804 5.85713987 16.59777186 C-0.72279257 16.67089754 -4.77594529 18.11353133 -9.17236853 23.31712981 Z " fill="#1F2E50" transform="translate(332.32159853726625,-0.12656183913350105)"/>
<path d="M0 0 C0.66257813 0.1556543 1.32515625 0.31130859 2.0078125 0.47167969 C35.82355691 8.52381274 65.71512715 30.5980853 84.25 59.875 C103.08271872 90.57093541 110.60351926 128.20167674 102.59082031 163.64599609 C93.71394198 199.01412043 72.6936938 231.07390429 41.43701172 250.56494141 C8.31830656 270.0672204 -29.71916016 276.10721582 -67.109375 266.78125 C-101.00469916 257.61893046 -131.35652568 235.88891326 -149.44677734 205.57568359 C-168.4580398 172.44321125 -174.16106941 135.08984035 -164.74609375 97.8671875 C-161.76317044 86.87020631 -157.51470126 76.94458827 -152 67 C-151.13375 65.38158203 -151.13375 65.38158203 -150.25 63.73046875 C-146.22948847 56.48051856 -141.44627133 50.23325307 -136 44 C-135.20464844 43.07058594 -134.40929687 42.14117187 -133.58984375 41.18359375 C-101.33645482 4.43210938 -47.4054622 -11.94850789 0 0 Z " fill="#F9F2E6" transform="translate(169,3)"/>
<path d="M0 0 C16.5 0 33 0 50 0 C50 23.1 50 46.2 50 70 C53.32524542 68.89158486 53.74479055 68.34836837 55.6796875 65.59765625 C56.18943115 64.8816626 56.6991748 64.16566895 57.22436523 63.42797852 C58.04142944 62.25706665 58.04142944 62.25706665 58.875 61.0625 C60.0506184 59.4061344 61.2264042 57.74988761 62.40234375 56.09375 C63.00159668 55.24425781 63.60084961 54.39476562 64.21826172 53.51953125 C66.93217873 49.68181906 69.68354777 45.87153507 72.4375 42.0625 C72.96819092 41.32684814 73.49888184 40.59119629 74.0456543 39.83325195 C78.58734504 33.5460683 83.18318133 27.29945686 87.80444336 21.07055664 C88.33690674 20.3511792 88.86937012 19.63180176 89.41796875 18.890625 C89.99933594 18.14893066 90.58070312 17.40723633 91.1796875 16.64306641 C92.65453749 14.50160638 93.63316129 12.67949563 94.6796875 10.33740234 C96.77652084 6.08614566 98.8854216 2.53204824 103 0 C111.91139036 -2.35817375 121.51912301 -1.30917046 130.625 -0.875 C133.18081955 -0.80471577 135.73682411 -0.74084773 138.29296875 -0.68359375 C144.53270419 -0.52989805 150.76549149 -0.29622336 157 0 C153.87025296 4.75247552 150.74962004 9.47713678 147.265625 13.98046875 C146.61432617 14.82714111 145.96302734 15.67381348 145.29199219 16.54614258 C144.61813477 17.41779053 143.94427734 18.28943848 143.25 19.1875 C138.24628983 25.70429109 133.31791328 32.25029411 128.5847168 38.96582031 C125.48773779 43.34915699 122.29042841 47.64987735 119.0625 51.9375 C118.5670166 52.60096436 118.0715332 53.26442871 117.56103516 53.94799805 C114.99293915 57.38200228 112.39069253 60.77964483 109.72265625 64.13671875 C108.69006626 65.46611639 107.65751281 66.79554241 106.625 68.125 C106.13008057 68.72820068 105.63516113 69.33140137 105.12524414 69.95288086 C102.96428841 72.77084926 101.90884548 74.30365465 102.37890625 77.89453125 C104.48709011 81.93310033 106.82464886 85.74803288 109.3125 89.5625 C110.40458005 91.26372357 111.4956921 92.96556885 112.5859375 94.66796875 C113.15022461 95.54630371 113.71451172 96.42463867 114.29589844 97.32958984 C117.05357438 101.65100237 119.74608381 106.01212 122.4375 110.375 C123.24634644 111.68416382 123.24634644 111.68416382 124.0715332 113.01977539 C125.16761407 114.79392501 126.26339832 116.56825792 127.35888672 118.34277344 C130.6028604 123.59528899 133.85451869 128.84305079 137.10498047 134.09155273 C139.92859251 138.65155344 142.74950999 143.21319083 145.56640625 147.77734375 C146.15164063 148.72480469 146.736875 149.67226562 147.33984375 150.6484375 C148.45658865 152.45650067 149.57252455 154.26506387 150.6875 156.07421875 C152.85702649 159.58520819 155.02939936 163.07355492 157.37109375 166.47265625 C159 169 159 169 159 171 C106.13987449 175.85321185 106.13987449 175.85321185 95.81103516 168.60498047 C90.06570473 163.25211295 87.49493385 155.5545025 85.17274475 148.23504639 C82.82954366 140.88267254 78.95404056 134.72901787 74.79840088 128.27453613 C72.9498936 125.38057659 71.18943433 122.43543971 69.4140625 119.49609375 C67.41076809 116.20143988 65.36583195 113.04595252 63 110 C53.03917677 120.31885509 49.50499773 128.4563287 49.57714844 142.82226562 C49.63418945 145.02591797 49.69123047 147.22957031 49.75 149.5 C49.8325 156.595 49.915 163.69 50 171 C33.5 171 17 171 0 171 C0 114.57 0 58.14 0 0 Z " fill="#1D2C4F" transform="translate(1181,48)"/>
<path d="M0 0 C1.28938477 -0.0100708 2.57876953 -0.0201416 3.90722656 -0.03051758 C22.82601876 0.13878616 40.98343096 4.56469275 55.4375 17.4375 C66.0651186 28.34697432 71.4375 40.27293404 71.4375 55.4375 C55.9275 55.4375 40.4175 55.4375 24.4375 55.4375 C23.7775 53.1275 23.1175 50.8175 22.4375 48.4375 C17.58314723 43.4702553 12.11040786 40.41637561 5.09765625 40.00390625 C3.56519837 39.98686437 2.03248661 39.98577439 0.5 40 C-0.25990234 39.98001953 -1.01980469 39.96003906 -1.80273438 39.93945312 C-7.47970724 39.94430109 -11.82115881 41.2737595 -16.5625 44.4375 C-19.10080096 47.37241049 -19.51769358 49.07904864 -20 52.9375 C-19.46594191 57.20996473 -18.7540884 58.55728608 -15.5625 61.4375 C-7.79830918 66.19839942 1.44645997 67.33558027 10.25683594 68.95605469 C56.27643 77.43603697 56.27643 77.43603697 69.4375 96.4375 C76.4697517 109.96235818 77.38453242 124.68160081 73.46875 139.34765625 C68.48451313 154.28148717 59.2847174 164.96032351 45.4375 172.4375 C21.99399799 183.405431 -8.92177159 184.94278336 -33.625 177.25 C-50.7422011 170.81922832 -62.70218661 162.45152941 -70.4375 145.625 C-73.37342808 139.04346585 -72.95102281 134.38670351 -73.5625 126.4375 C-57.7225 126.4375 -41.8825 126.4375 -25.5625 126.4375 C-24.2425 129.0775 -22.9225 131.7175 -21.5625 134.4375 C-15.51807759 140.30414528 -7.32979307 141.51643193 0.75 141.8125 C8.66789777 141.67455753 15.04577572 139.69864952 21.625 135.3125 C24.2125926 131.20804278 24.40100737 127.17474456 23.4375 122.4375 C16.58452373 113.20739759 -4.103995 112.41221202 -14.70703125 110.5078125 C-33.32258488 107.10590437 -51.95741307 101.52637051 -63.5625 85.4375 C-71.10535911 73.39201582 -72.23489764 59.09903496 -70.0625 45.25 C-66.08213726 29.32854905 -56.35934699 18.03888159 -42.5625 9.4375 C-38.99227956 7.41203454 -35.41662576 5.84583464 -31.5625 4.4375 C-30.51964844 4.04433594 -29.47679687 3.65117188 -28.40234375 3.24609375 C-19.03860124 0.32183466 -9.74805734 0.03915876 0 0 Z " fill="#1E2D4F" transform="translate(426.5625,43.5625)"/>
<path d="M0 0 C13.71182111 10.8589437 20.60089614 24.92766545 24.34667969 41.78369141 C24.34667969 50.69369141 24.34667969 59.60369141 24.34667969 68.78369141 C-4.36332031 68.78369141 -33.07332031 68.78369141 -62.65332031 68.78369141 C-60.63154549 81.97628637 -60.63154549 81.97628637 -52.77832031 91.28369141 C-46.20661411 94.49045395 -37.35453344 93.96751811 -30.56347656 91.79541016 C-25.76753889 89.67785562 -25.76753889 89.67785562 -22.65112305 85.71533203 C-19.78986302 82.9488296 -17.47589978 83.32917742 -13.60493469 83.33050537 C-12.65797226 83.35115051 -11.71100983 83.37179565 -10.73535156 83.39306641 C-9.76297043 83.3987262 -8.79058929 83.40438599 -7.78874207 83.41021729 C-4.68060231 83.43262212 -1.57361207 83.4828266 1.53417969 83.53369141 C3.64028284 83.55375107 5.74640405 83.57200277 7.85253906 83.58837891 C13.01769605 83.63250048 18.18199293 83.70155681 23.34667969 83.78369141 C21.65977619 96.73983541 14.86794731 106.46039251 4.96777344 114.78369141 C-8.87022185 125.08999929 -25.07389228 128.36397737 -42.02832031 128.22119141 C-43.30255859 128.21289307 -44.57679688 128.20459473 -45.88964844 128.19604492 C-63.88876883 127.87265919 -79.21128218 122.78743788 -92.43847656 110.09619141 C-98.93066522 103.31775104 -103.2070394 96.52020427 -106.65332031 87.78369141 C-106.95109375 87.03216797 -107.24886719 86.28064453 -107.55566406 85.50634766 C-114.84917209 65.44012905 -113.0858563 41.26255561 -104.37597656 21.95166016 C-96.14421582 5.6477573 -82.64466194 -4.22743879 -65.73925781 -10.25537109 C-44.66415279 -16.20533478 -17.88807664 -13.15983429 0 0 Z " fill="#1E2D50" transform="translate(862.6533203125,95.21630859375)"/>
<path d="M0 0 C1.01320313 0.36351563 2.02640625 0.72703125 3.0703125 1.1015625 C18.90155018 7.25154205 30.7554622 17.79421162 38.19091797 33.15478516 C44.60977097 47.79379873 44 61.97230953 44 78 C14.96 78 -14.08 78 -44 78 C-41.26024625 91.73410138 -41.26024625 91.73410138 -32 101 C-24.21070648 103.59643117 -15.23540273 102.84669818 -7.8671875 99.36328125 C-5.79564792 98.04355828 -5.79564792 98.04355828 -4.52294922 95.4453125 C-1.19478305 92.21956136 0.81763957 92.43163197 5.31414795 92.43351746 C6.75966034 92.4722271 6.75966034 92.4722271 8.234375 92.51171875 C9.72411835 92.52233086 9.72411835 92.52233086 11.24395752 92.53315735 C14.41340733 92.56112712 17.58108497 92.62387199 20.75 92.6875 C22.89971406 92.71257946 25.04945582 92.73539324 27.19921875 92.75585938 C32.4667496 92.81096178 37.7332482 92.89461335 43 93 C41.01207882 106.10267544 33.57313992 117.16664709 23 125 C3.85121827 137.23274318 -20.56788502 140.54150252 -42.75317383 135.92407227 C-58.32712221 132.0065058 -71.84387616 124.10370956 -80.875 110.625 C-92.70228016 90.4507159 -95.21151773 66.78858979 -90.171875 44.0390625 C-85.79651266 27.44981968 -75.31616933 13.98857487 -60.84375 5.05078125 C-43.32047397 -4.53477227 -18.85344309 -6.83095764 0 0 Z " fill="#1E2D50" transform="translate(1436,86)"/>
<path d="M0 0 C11.42137952 11.0849068 16.69055598 22.13722391 20.5625 37.625 C20.5625 46.865 20.5625 56.105 20.5625 65.625 C-8.1475 65.625 -36.8575 65.625 -66.4375 65.625 C-64.25630567 79.06408453 -64.25630567 79.06408453 -56.6875 88 C-50.78025469 91.01103648 -42.86725962 90.74698244 -36.4375 89.625 C-31.26847155 87.60673797 -27.52644785 85.25842178 -24.4375 80.625 C-22.48861694 80.26423645 -22.48861694 80.26423645 -20.07958984 80.28442383 C-19.17880707 80.28465042 -18.27802429 80.28487701 -17.34994507 80.28511047 C-16.37594757 80.30059433 -15.40195007 80.31607819 -14.3984375 80.33203125 C-13.40244537 80.33627609 -12.40645325 80.34052094 -11.38027954 80.34489441 C-8.19074775 80.3617232 -5.00184167 80.39938324 -1.8125 80.4375 C0.34634506 80.4525414 2.5052 80.46623075 4.6640625 80.47851562 C9.96375612 80.51164033 15.26308337 80.56188104 20.5625 80.625 C20.11136425 82.19924028 19.65449989 83.77183942 19.1953125 85.34375 C18.94152832 86.21966797 18.68774414 87.09558594 18.42626953 87.99804688 C13.96387092 101.56938919 3.16907123 111.29930266 -9.0234375 118.05859375 C-20.42904889 123.69450436 -31.52818703 124.88108912 -44.0625 124.9375 C-45.09906738 124.94305908 -46.13563477 124.94861816 -47.20361328 124.9543457 C-65.69597698 124.78314721 -82.95928426 119.76002399 -96.6875 106.875 C-112.40774546 90.09387908 -115.09701715 69.05131058 -114.74609375 47.03515625 C-114.13336574 29.64741004 -107.71500141 13.62244553 -95.3359375 1.25390625 C-70.29604243 -21.45748106 -25.7352308 -22.20826393 0 0 Z " fill="#1E2D50" transform="translate(1019.4375,98.375)"/>
<path d="M0 0 C0.66257813 0.1556543 1.32515625 0.31130859 2.0078125 0.47167969 C35.82355691 8.52381274 65.71512715 30.5980853 84.25 59.875 C103.08271872 90.57093541 110.60351926 128.20167674 102.59082031 163.64599609 C93.71394198 199.01412043 72.6936938 231.07390429 41.43701172 250.56494141 C8.31830656 270.0672204 -29.71916016 276.10721582 -67.109375 266.78125 C-101.00469916 257.61893046 -131.35652568 235.88891326 -149.44677734 205.57568359 C-168.4580398 172.44321125 -174.16106941 135.08984035 -164.74609375 97.8671875 C-161.76317044 86.87020631 -157.51470126 76.94458827 -152 67 C-151.13375 65.38158203 -151.13375 65.38158203 -150.25 63.73046875 C-146.22948847 56.48051856 -141.44627133 50.23325307 -136 44 C-135.20464844 43.07058594 -134.40929687 42.14117187 -133.58984375 41.18359375 C-101.33645482 4.43210938 -47.4054622 -11.94850789 0 0 Z M-124.7109375 57.15234375 C-144.78025785 82.11912623 -154.93005625 113.80012674 -151.71582031 145.83203125 C-150.01561702 159.30602843 -146.74801706 171.69789516 -141 184 C-140.69046387 184.66467285 -140.38092773 185.3293457 -140.06201172 186.01416016 C-135.49368113 195.59888282 -129.76096758 203.84321976 -123 212 C-122.04867187 213.19882812 -122.04867187 213.19882812 -121.078125 214.421875 C-104.31426209 234.62447902 -79.11322176 246.41205685 -54 252 C-53.2464624 252.17958252 -52.4929248 252.35916504 -51.71655273 252.54418945 C-48.2815953 253.12054117 -44.89137034 253.20107357 -41.41796875 253.23828125 C-40.32020866 253.25038887 -40.32020866 253.25038887 -39.20027161 253.26274109 C-37.64957001 253.27653768 -36.09883862 253.28727952 -34.5480957 253.29516602 C-32.99396583 253.30657808 -31.43987171 253.32685459 -29.88598633 253.35668945 C-18.62067647 253.57237995 -8.7767029 252.29435506 2 249 C2.92031006 248.722771 3.84062012 248.44554199 4.78881836 248.15991211 C7.07186023 247.43261445 9.31719188 246.6485001 11.5625 245.8125 C12.35132568 245.51915771 13.14015137 245.22581543 13.95288086 244.92358398 C25.91069966 240.28678034 36.31612325 233.37745156 46 225 C46.79535156 224.34902344 47.59070313 223.69804687 48.41015625 223.02734375 C69.998595 204.72335844 84.7512367 176.56189921 87.80517578 148.40820312 C90.42807433 115.98681052 82.86395437 84.50928777 62 59 C59.08576719 55.58070085 56.07917254 52.27091589 53 49 C52.46117187 48.39671875 51.92234375 47.7934375 51.3671875 47.171875 C38.09914717 32.90373113 18.59508089 23.01604939 0 18 C-0.68690918 17.80535156 -1.37381836 17.61070313 -2.08154297 17.41015625 C-47.48797664 4.87294109 -94.28214783 22.36890397 -124.7109375 57.15234375 Z " fill="#1E2D50" transform="translate(169,3)"/>
<path d="M0 0 C1.65515625 0.54333984 1.65515625 0.54333984 3.34375 1.09765625 C15.8072642 5.74000056 24.69627019 14.01830301 30.4375 26 C30.97024323 28.84129722 31.0562032 31.30640673 31.03515625 34.1875 C31.03008057 35.08855469 31.02500488 35.98960938 31.01977539 36.91796875 C31.01324951 37.60503906 31.00672363 38.29210937 31 39 C24.80707301 39.14831992 18.61517931 39.2572042 12.42089844 39.32958984 C10.31394443 39.35976335 8.20711604 39.4007083 6.10058594 39.45263672 C3.07195066 39.52542673 0.0449753 39.55945024 -2.984375 39.5859375 C-4.39707672 39.63238907 -4.39707672 39.63238907 -5.83831787 39.67977905 C-8.36465661 39.68107917 -10.55235562 39.62817004 -13 39 C-15.43457031 36.11181641 -15.43457031 36.11181641 -17 33 C-22.72456064 28.56054481 -27.87592481 28.11210207 -35 29 C-37.67293921 29.73623063 -39.55646624 30.61887222 -42 32 C-43.58368102 35.16736204 -43.42056706 37.5153015 -43 41 C-38.01719766 45.39317073 -32.45132995 46.31223974 -26.0625 47.5625 C-25.03705078 47.77519531 -24.01160156 47.98789063 -22.95507812 48.20703125 C-18.53919718 49.11740771 -14.11658976 49.98576635 -9.68359375 50.80859375 C5.86658926 53.72734496 19.72497633 57.52769046 30.4921875 69.77734375 C34.74345933 76.04411492 35.52664618 81.32840522 35.4375 88.75 C35.42920166 89.63598877 35.42090332 90.52197754 35.41235352 91.43481445 C35.08079763 104.30413832 30.17852342 113.28068718 20.9375 122.125 C1.8962282 137.48638557 -24.61815985 138.00782515 -47.88476562 135.71582031 C-63.19367 133.43355759 -77.8965144 126.19786473 -87.6171875 113.96484375 C-92.02194122 107.40984044 -94.08256915 100.85816631 -94 93 C-87.39844024 92.82237569 -80.79749712 92.6998717 -74.1940918 92.61547852 C-71.94841486 92.58029608 -69.70289802 92.53254131 -67.45776367 92.47192383 C-64.22795131 92.38690997 -61.00025898 92.34728933 -57.76953125 92.31640625 C-56.76727005 92.28027725 -55.76500885 92.24414825 -54.7323761 92.20692444 C-47.86817838 92.20306602 -47.86817838 92.20306602 -45.32577515 94.53683472 C-44.01049805 96.42163086 -44.01049805 96.42163086 -43.0019989 98.30357361 C-41.61932739 100.64449479 -39.82142872 101.66836448 -37.2890625 102.56640625 C-29.66386698 104.01076922 -21.65473354 104.36408342 -15 100 C-13.9695702 98.10632369 -13.9695702 98.10632369 -13.9375 96 C-13.86402344 95.319375 -13.79054688 94.63875 -13.71484375 93.9375 C-13.86643985 91.94777794 -13.86643985 91.94777794 -15.08984375 90.3671875 C-17.80150739 88.42632395 -20.37996326 87.89697716 -23.625 87.125 C-24.30723633 86.95991943 -24.98947266 86.79483887 -25.69238281 86.62475586 C-31.24899724 85.31564078 -36.84652776 84.25354331 -42.45458984 83.19116211 C-61.85603415 79.48996793 -61.85603415 79.48996793 -70 75 C-70.79921875 74.56042969 -71.5984375 74.12085938 -72.421875 73.66796875 C-81.21077164 68.31499982 -88.02741734 60.9044205 -90.546875 50.80859375 C-92.18733446 40.64057345 -92.13689701 30.1144249 -87 21 C-86.4225 19.96875 -85.845 18.9375 -85.25 17.875 C-75.76279891 5.75246528 -64.00894331 -0.09215703 -49 -3 C-48.24050049 -3.17055908 -47.48100098 -3.34111816 -46.69848633 -3.5168457 C-31.53274769 -6.2322168 -14.57870105 -4.83315633 0 0 Z " fill="#1E2D50" transform="translate(1707,87)"/>
<path d="M0 0 C16.17 0 32.34 0 49 0 C49 9.57 49 19.14 49 29 C57.58 29 66.16 29 75 29 C75 40.88 75 52.76 75 65 C66.42 65 57.84 65 49 65 C49.07397917 72.59944633 49.15679672 80.19771152 49.26245117 87.79663086 C49.29570111 90.38152954 49.32373277 92.96650084 49.34643555 95.55151367 C49.37997927 99.26773009 49.43229728 102.98328101 49.48828125 106.69921875 C49.49467117 107.85459641 49.5010611 109.00997406 49.50764465 110.20036316 C49.52743881 111.28110611 49.54723297 112.36184906 49.56762695 113.4753418 C49.57873001 114.42354294 49.58983307 115.37174408 49.60127258 116.34867859 C50.07643708 119.50826517 51.1558201 121.41210599 53 124 C55.75255034 125.8474198 58.05032788 126.27358548 61.328125 126.4140625 C62.0490332 126.44967285 62.76994141 126.4852832 63.51269531 126.52197266 C64.41600586 126.55597168 65.31931641 126.5899707 66.25 126.625 C69.1375 126.74875 72.025 126.8725 75 127 C75 138.22 75 149.44 75 161 C67.91418599 163.02451829 62.26926598 163.33903163 54.99633789 163.31567383 C52.96639677 163.31254455 50.93796149 163.33590987 48.90820312 163.36132812 C35.03890157 163.42989925 20.07453499 161.62919575 9.0625 152.37109375 C1.93497666 144.69118735 -0.13280266 135.38540811 -0.11352539 125.16845703 C-0.11367142 124.51409164 -0.11381744 123.85972626 -0.1139679 123.18553162 C-0.11327647 121.04292374 -0.10552052 118.90040501 -0.09765625 116.7578125 C-0.09578933 115.26423185 -0.09436672 113.77065058 -0.09336853 112.27706909 C-0.08956494 108.36114793 -0.07975324 104.44526432 -0.06866455 100.52935791 C-0.05840388 96.52738961 -0.05386096 92.52541519 -0.04882812 88.5234375 C-0.03812889 80.68227258 -0.02054973 72.8411453 0 65 C-6.6 65 -13.2 65 -20 65 C-20 53.12 -20 41.24 -20 29 C-13.4 29 -6.8 29 0 29 C0 19.43 0 9.86 0 0 Z " fill="#1E2D4F" transform="translate(540,57)"/>
<path d="M0 0 C16.17 0 32.34 0 49 0 C49 9.57 49 19.14 49 29 C57.58 29 66.16 29 75 29 C75 40.88 75 52.76 75 65 C66.42 65 57.84 65 49 65 C49.07397917 72.59944633 49.15679672 80.19771152 49.26245117 87.79663086 C49.29570111 90.38152954 49.32373277 92.96650084 49.34643555 95.55151367 C49.37997927 99.26773009 49.43229728 102.98328101 49.48828125 106.69921875 C49.49467117 107.85459641 49.5010611 109.00997406 49.50764465 110.20036316 C49.52743881 111.28110611 49.54723297 112.36184906 49.56762695 113.4753418 C49.57873001 114.42354294 49.58983307 115.37174408 49.60127258 116.34867859 C50.07643708 119.50826517 51.1558201 121.41210599 53 124 C55.75255034 125.8474198 58.05032788 126.27358548 61.328125 126.4140625 C62.12734375 126.45273438 62.9265625 126.49140625 63.75 126.53125 C64.575 126.5621875 65.4 126.593125 66.25 126.625 C67.09046875 126.66367188 67.9309375 126.70234375 68.796875 126.7421875 C70.86423382 126.83615836 72.93208627 126.91915564 75 127 C75.0246519 131.82380802 75.04283693 136.64757967 75.05493164 141.47143555 C75.05997174 143.11369464 75.06680378 144.75594923 75.07543945 146.39819336 C75.08751926 148.75375479 75.09323139 151.10925709 75.09765625 153.46484375 C75.10281754 154.20339096 75.10797882 154.94193817 75.11329651 155.7028656 C75.1134925 157.46898088 75.06194719 159.23497146 75 161 C70.74392706 165.25607294 55.5092922 163.23445124 49.625 163.25 C35.02480242 163.23492938 20.48299316 161.99811167 8.8046875 152.1484375 C4.52513122 147.6540081 2.400618 143.00110941 1 137 C0.82686783 136.26868362 0.65373566 135.53736725 0.47535706 134.78388977 C-0.07358979 131.56902742 -0.11966881 128.54413713 -0.11352539 125.28198242 C-0.11367142 124.62776306 -0.11381744 123.9735437 -0.1139679 123.29949951 C-0.11327494 121.15145474 -0.10551164 119.00349825 -0.09765625 116.85546875 C-0.09578988 115.36045886 -0.09436701 113.86544835 -0.09336853 112.37043762 C-0.08956064 108.44628189 -0.07974518 104.5221635 -0.06866455 100.59802246 C-0.05841321 96.58944199 -0.05386294 92.58085545 -0.04882812 88.57226562 C-0.03812129 80.71482475 -0.02053856 72.85742133 0 65 C-6.6 65 -13.2 65 -20 65 C-20 53.12 -20 41.24 -20 29 C-13.4 29 -6.8 29 0 29 C0 19.43 0 9.86 0 0 Z " fill="#1E2D4F" transform="translate(1075,57)"/>
<path d="M0 0 C0 13.53 0 27.06 0 41 C-3.63 40.34 -7.26 39.68 -11 39 C-22.29629919 38.20200455 -32.95408092 38.39320441 -42 46 C-46.84453247 52.36747492 -48.13879463 57.39868091 -48.20532227 65.33886719 C-48.21522186 66.07096909 -48.22512146 66.80307098 -48.23532104 67.55735779 C-48.2668382 69.97049761 -48.29165464 72.38365709 -48.31640625 74.796875 C-48.33698423 76.47268172 -48.35798093 78.14848334 -48.37937927 79.82427979 C-48.43451274 84.23008087 -48.48396042 88.63592812 -48.53222656 93.04180908 C-48.5913489 98.33075498 -48.65752879 103.61961671 -48.72252655 108.90849304 C-48.82042628 116.93894385 -48.90935738 124.96944922 -49 133 C-65.5 133 -82 133 -99 133 C-99 88.78 -99 44.56 -99 -1 C-82.5 -1 -66 -1 -49 -1 C-49 6.26 -49 13.52 -49 21 C-48.34 21 -47.68 21 -47 21 C-46.95875 20.195625 -46.9175 19.39125 -46.875 18.5625 C-45.06709677 11.20175113 -40.40384629 5.45181411 -34.18359375 1.21875 C-22.97019897 -5.03988895 -11.80807323 -3.93602441 0 0 Z " fill="#202E51" transform="translate(1602,87)"/>
<path d="M0 0 C0 13.53 0 27.06 0 41 C-3.63 40.34 -7.26 39.68 -11 39 C-22.29629919 38.20200455 -32.95408092 38.39320441 -42 46 C-46.84453247 52.36747492 -48.13879463 57.39868091 -48.20532227 65.33886719 C-48.21522186 66.07096909 -48.22512146 66.80307098 -48.23532104 67.55735779 C-48.2668382 69.97049761 -48.29165464 72.38365709 -48.31640625 74.796875 C-48.33698423 76.47268172 -48.35798093 78.14848334 -48.37937927 79.82427979 C-48.43451274 84.23008087 -48.48396042 88.63592812 -48.53222656 93.04180908 C-48.5913489 98.33075498 -48.65752879 103.61961671 -48.72252655 108.90849304 C-48.82042628 116.93894385 -48.90935738 124.96944922 -49 133 C-65.5 133 -82 133 -99 133 C-99 88.78 -99 44.56 -99 -1 C-82.5 -1 -66 -1 -49 -1 C-49 6.26 -49 13.52 -49 21 C-48.34 21 -47.68 21 -47 21 C-46.95875 20.195625 -46.9175 19.39125 -46.875 18.5625 C-45.06709677 11.20175113 -40.40384629 5.45181411 -34.18359375 1.21875 C-22.97019897 -5.03988895 -11.80807323 -3.93602441 0 0 Z " fill="#202E51" transform="translate(740,87)"/>
<path d="M0 0 C9.57 0 19.14 0 29 0 C29.33 12.87 29.66 25.74 30 39 C37.21534557 29.66710736 44.30914861 20.31145802 51.04003906 10.62329102 C51.50249023 9.95869873 51.96494141 9.29410645 52.44140625 8.609375 C52.84045166 8.03155273 53.23949707 7.45373047 53.65063477 6.85839844 C54.31857056 5.93849121 54.31857056 5.93849121 55 5 C55.56936279 4.11062744 56.13872559 3.22125488 56.7253418 2.30493164 C59 0 59 0 62.20800781 -0.56762695 C63.44389648 -0.54144287 64.67978516 -0.51525879 65.953125 -0.48828125 C66.94345734 -0.47766914 66.94345734 -0.47766914 67.95379639 -0.46684265 C70.05370492 -0.43894727 72.15090379 -0.37623287 74.25 -0.3125 C75.6770447 -0.28741017 77.10413138 -0.26459817 78.53125 -0.24414062 C82.02170748 -0.1891412 85.51058911 -0.10290912 89 0 C87.75471479 3.43010691 86.37447462 6.09021866 84.09375 8.93359375 C83.51931152 9.65844971 82.94487305 10.38330566 82.35302734 11.13012695 C81.43577881 12.27227661 81.43577881 12.27227661 80.5 13.4375 C75.15588622 20.18886496 70.02383296 27.02909866 65.0859375 34.08203125 C63 37 63 37 60.6640625 39.57421875 C58.72512095 41.84099397 58.72512095 41.84099397 59.24072266 44.38012695 C60.01834826 47.06331034 60.99180709 48.99061189 62.484375 51.34375 C63.00128906 52.1677832 63.51820313 52.99181641 64.05078125 53.84082031 C64.89189453 55.15711426 64.89189453 55.15711426 65.75 56.5 C66.93243213 58.38012 68.11471951 60.26033104 69.296875 62.140625 C69.90724609 63.10548828 70.51761719 64.07035156 71.14648438 65.06445312 C74.12240543 69.77763473 77.06203269 74.51310321 80 79.25 C80.5269043 80.09369141 81.05380859 80.93738281 81.59667969 81.80664062 C84.89793765 87.11818539 88.01596148 92.50395559 91 98 C63.14692032 102.34049191 63.14692032 102.34049191 55.29589844 96.79669189 C48.68207725 90.45236382 44.84790113 81.46616423 41.36157227 73.13793945 C40.0778763 69.99121614 40.0778763 69.99121614 38.32397461 67.21166992 C37 65 37 65 37 63 C36.34 63 35.68 63 35 63 C34.731875 63.556875 34.46375 64.11375 34.1875 64.6875 C33 67 33 67 31.45776367 69.25854492 C29.76044174 72.45051076 29.57689133 74.57821218 29.48828125 78.17578125 C29.45516846 79.21903564 29.42205566 80.26229004 29.38793945 81.3371582 C29.36304443 82.649021 29.33814941 83.96088379 29.3125 85.3125 C29.209375 89.499375 29.10625 93.68625 29 98 C19.43 98 9.86 98 0 98 C0 65.66 0 33.32 0 0 Z " fill="#1F2D50" transform="translate(136,84)"/>
<path d="M0 0 C6.45456823 5.55393081 11.49844782 10.96673856 13.6875 19.3125 C13.6875 21.2925 13.6875 23.2725 13.6875 25.3125 C4.7775 25.3125 -4.1325 25.3125 -13.3125 25.3125 C-13.9725 23.6625 -14.6325 22.0125 -15.3125 20.3125 C-20.24859538 16.73383085 -25.43564907 16.57076153 -31.3125 17.3125 C-34.8172765 18.64235569 -34.8172765 18.64235569 -37.3125 20.3125 C-37.72975678 23.68650578 -37.72975678 23.68650578 -37.3125 27.3125 C-34.04638394 29.78182491 -31.06185332 30.79000916 -27.06640625 31.48828125 C-26.07060547 31.67293945 -25.07480469 31.85759766 -24.04882812 32.04785156 C-23.00146484 32.23831055 -21.95410156 32.42876953 -20.875 32.625 C-8.07558413 35.15493853 3.57864835 37.5101831 12.234375 48.06640625 C17.07888994 55.55456778 16.50016388 64.36768705 15.328125 72.94140625 C13.32781268 80.49663996 7.63111377 86.65167203 1.26171875 90.94921875 C-1.22100651 92.26779532 -3.68013268 93.32836268 -6.3125 94.3125 C-7.11945313 94.62960938 -7.92640625 94.94671875 -8.7578125 95.2734375 C-21.81324911 99.6252497 -39.12312637 98.85388503 -51.5625 93.0625 C-59.2271995 88.88396334 -65.37808358 83.80048138 -68.3125 75.3125 C-68.6425 72.0125 -68.9725 68.7125 -69.3125 65.3125 C-60.0725 65.3125 -50.8325 65.3125 -41.3125 65.3125 C-40.6525 66.9625 -39.9925 68.6125 -39.3125 70.3125 C-35.44654059 73.4755577 -32.27780284 73.69420351 -27.375 73.625 C-26.19035156 73.62113281 -25.00570312 73.61726563 -23.78515625 73.61328125 C-20.32838093 73.31387551 -17.54129001 72.54979205 -14.3125 71.3125 C-14.3125 68.6725 -14.3125 66.0325 -14.3125 63.3125 C-20.6582183 60.11607406 -26.50474867 58.54776685 -33.5 57.5 C-44.40803659 55.62799055 -56.44037148 52.64137338 -63.26953125 43.1015625 C-63.61371094 42.51117188 -63.95789062 41.92078125 -64.3125 41.3125 C-64.64636719 40.74273437 -64.98023438 40.17296875 -65.32421875 39.5859375 C-68.70113218 32.40426641 -68.62225252 22.58391658 -66.375 15.0625 C-61.75253169 5.08995263 -53.26362857 -0.78481427 -43.3125 -4.6875 C-29.55747446 -8.76774798 -12.55386264 -6.39536399 0 0 Z " fill="#1F2E50" transform="translate(108.3125,87.6875)"/>
<path d="M0 0 C4.71598312 3.54757079 7.23086835 8.09489704 9.125 13.625 C9.125 14.615 9.125 15.605 9.125 16.625 C-4.405 16.625 -17.935 16.625 -31.875 16.625 C-30.67295623 9.41273736 -28.15188918 4.12167747 -22.25 -0.375 C-15.05462286 -3.40463248 -6.87145727 -4.08604243 0 0 Z " fill="#F8F1E5" transform="translate(831.875,119.375)"/>
<path d="M0 0 C6.18421166 4.48260106 8.39187553 9.60125319 9.625 17 C-3.905 17 -17.435 17 -31.375 17 C-27.98914791 5.71382637 -27.98914791 5.71382637 -23.375 2 C-22.694375 1.4225 -22.01375 0.845 -21.3125 0.25 C-15.35124205 -3.59597287 -6.05626345 -3.43111503 0 0 Z " fill="#F8F1E5" transform="translate(984.375,119)"/>
<path d="M0 0 C5.64596219 3.39183039 9.60996729 7.67477652 11.57421875 14.05859375 C11.57421875 15.37859375 11.57421875 16.69859375 11.57421875 18.05859375 C-1.62578125 18.05859375 -14.82578125 18.05859375 -28.42578125 18.05859375 C-27.36968432 10.66591527 -25.88083084 7.03620521 -20.36328125 2.24609375 C-14.67394192 -1.99064831 -6.63546232 -2.57511501 0 0 Z " fill="#F9F2E5" transform="translate(1421.42578125,117.94140625)"/>
</svg>
